<?xml version="1.0" encoding="utf-8"?>
<!-- Generator: Adobe Illustrator 24.2.1, SVG Export Plug-In . SVG Version: 6.00 Build 0)  -->
<svg version="1.1" id="Layer_1" xmlns="http://www.w3.org/2000/svg" xmlns:xlink="http://www.w3.org/1999/xlink" x="0px" y="0px"
	 viewBox="0 0 386.77 144.24" style="enable-background:new 0 0 386.77 144.24;" xml:space="preserve">
<style type="text/css">
	.st0{fill:#222B3E;}
	.st1{fill:#5E888C;}
</style>
<g>
	<path class="st0" d="M224.09,119.68c-0.28,0.97-0.61,1.89-1.04,2.71c-1.21,2.29-2.78,4.11-4.7,5.45c-1.92,1.34-4.07,2.29-6.44,2.85
		c-2.38,0.56-4.76,0.84-7.14,0.84h-7.64V95.69h7.64c2.38,0,4.76,0.25,7.14,0.73c2.38,0.49,4.52,1.39,6.44,2.71
		c1.92,1.32,3.48,3.15,4.7,5.49c0.29,0.57,0.55,1.18,0.77,1.83c1.57-1.46,3.66-2.35,5.96-2.35c1.33,0,2.59,0.31,3.72,0.84
		c-0.37-1.24-0.8-2.42-1.35-3.49c-1.7-3.29-3.91-5.95-6.63-7.98c-2.72-2.02-5.78-3.48-9.17-4.35c-3.4-0.88-6.77-1.32-10.12-1.32
		h-18.28v51.8h18.28c3.35,0,6.72-0.5,10.12-1.5c3.4-1,6.45-2.55,9.17-4.65c2.72-2.1,4.93-4.78,6.63-8.05
		c0.73-1.41,1.27-2.96,1.69-4.6c-1.22,0.64-2.59,1-4.06,1C227.62,121.79,225.63,120.99,224.09,119.68z"/>
	<path class="st1" d="M224.46,112.94c0,2.96,2.39,5.36,5.33,5.36c2.94,0,5.33-2.4,5.33-5.36c0-2.96-2.39-5.36-5.33-5.36
		C226.85,107.58,224.46,109.98,224.46,112.94z"/>
</g>
<polygon class="st0" points="254.6,131.34 254.6,116.72 265.5,116.72 265.49,116.71 276.41,116.71 276.41,108.94 261.54,108.94 
	261.54,108.97 254.6,108.97 254.6,95.82 279.67,95.82 279.67,87.78 245.39,87.78 245.39,139.53 280.99,139.53 280.99,131.34 "/>
<path class="st0" d="M312.2,109.48c-6.94-2.41-10.03-4.15-10.03-8.05c0-3.19,2.7-6.41,8.72-6.41c5.22,0,9.04,1.76,10.86,2.8
	l0.28,0.16l2.65-7.03l-0.22-0.12c-3.56-1.93-8.55-3.08-13.35-3.08c-11.09,0-18.83,6.04-18.83,14.68c0,6.2,4.98,11.09,14.41,14.16
	c7.24,2.44,9.81,4.73,9.81,8.76c0,4.33-3.9,7.02-10.16,7.02c-4.74,0-9.82-1.76-12.74-3.51l-0.29-0.17l-2.64,7.34l0.21,0.11
	c4,2.15,9.56,3.38,15.24,3.38c12.39,0,20.39-5.88,20.39-14.99C326.5,117.48,322.22,112.97,312.2,109.48z"/>
<path class="st1" d="M337.82,134.13c0,2.96,2.39,5.36,5.33,5.36c2.94,0,5.33-2.4,5.33-5.36c0-2.96-2.39-5.36-5.33-5.36
	C340.21,128.77,337.82,131.17,337.82,134.13z"/>
<path class="st0" d="M359.25,115.2l-1.29-1.5l2.34-2.81l21.91-22.45h-12.44l-21.87,23.6h-0.14V87.8h-9.22l0.53,19.98l-0.39,19.86
	c1.22-1.19,2.88-1.93,4.72-1.93c1.62,0,3.1,0.57,4.26,1.52v-11.45l0.09-0.52h0.13l0.79,0.72l22.24,23.51h12.44L359.25,115.2z"/>
<path class="st0" d="M182.91,56.38v-5.67h-5.61c-0.09,0-0.18-0.03-0.27-0.03h-7.78l1.42-20.2l1.95-6.21l-1.68-0.52l-2.07,6.61h-1.61
	v-7.55h-1.76v7.55h-1.95l-2.07-6.61l-1.68,0.52l1.99,6.34l0.94,20.07h-15.11c0-2.46-1.99-4.46-4.46-4.46h-3.31
	c-2.46,0-4.46,1.99-4.46,4.46h-26.96v-4.6h24.34v-6.24h0V5.4h-0.06V5.38H73.47V5.4h-0.02v34.45h0.01v6.24h24.57v4.6H8.44
	c-0.09,0-0.18,0.02-0.27,0.03H2.43v11.7h5.23c0.26,0.04,0.52,0.08,0.79,0.08h3.38v77.15h13.1V77.52h0.22l23.15,62.13h9.61
	l23.47-62.13h0.22v43.39c0,0,0,0,0,0v18.64h13.6v-18.57c0.01,0.01,0.03,0.02,0.04,0.02V62.49h7.98l28.34,42.73v8.85h0v25.45h14.23
	v-18.64c0,0,0,0,0.01,0v-15.67l28.34-42.73h2.88c0.27,0,0.53-0.04,0.79-0.08h5.09v-5.62c0-0.07,0.02-0.13,0.02-0.2
	S182.91,56.45,182.91,56.38z M53.75,117.26h-0.33L33.39,62.49h9.55H71.8h1.77L53.75,117.26z M77.19,36.84V9.13h51.85v27.71H77.19z
	 M103.12,42.69c-0.91,0-1.65-0.74-1.65-1.66c0-0.92,0.74-1.66,1.65-1.66c0.91,0,1.65,0.74,1.65,1.66
	C104.77,41.94,104.04,42.69,103.12,42.69z M139.03,91.81c0,0-13.97-21.73-18.91-29.32h37.65C152.91,70.08,139.03,91.81,139.03,91.81
	z"/>
<path class="st1" d="M38.68,50.68c-1.63-2.8-4.63-4.71-8.11-4.71h-1.38V27.44c-0.14-2.28,0.04-4.45,0.55-6.54
	c0.61-2.53,1.25-5.15,3.52-7.27c0.75-0.69,1.55-1.21,2.35-1.61c0.35,1.01,0.9,1.97,1.71,2.78l8.55,8.55c1.25,1.25,3.27,1.25,4.52,0
	l5.76-5.76c1.25-1.25,1.25-3.27,0-4.52L47.6,4.51c-2.84-2.84-7.45-2.84-10.29,0c-1.09,1.09-1.75,2.43-2.01,3.84
	c-1.67,0.65-3.19,1.54-4.44,2.71c-3.05,2.84-3.88,6.26-4.54,9.02c-0.59,2.44-0.81,4.95-0.64,7.48l0,18.42h-0.11
	c-3.48,0-6.48,1.91-8.11,4.71H38.68z"/>
</svg>
