<svg id="Group_190" data-name="Group 190" xmlns="http://www.w3.org/2000/svg" xmlns:xlink="http://www.w3.org/1999/xlink" width="142" height="53.724" viewBox="0 0 142 53.724">
  <defs>
    <clipPath id="clip-path">
      <rect id="Rectangle_1546" data-name="Rectangle 1546" width="142" height="53.724" fill="none"/>
    </clipPath>
  </defs>
  <g id="Group_189" data-name="Group 189" clip-path="url(#clip-path)">
    <path id="Path_495" data-name="Path 495" d="M318.02,114.15c0-.047,0-.092.007-.138a5.969,5.969,0,0,1-3.419-.31,4.927,4.927,0,0,1-1.711-1.212,5.424,5.424,0,0,1-1.1-1.869,7.154,7.154,0,0,1-.385-2.4,6.575,6.575,0,0,1,.4-2.311,5.532,5.532,0,0,1,1.133-1.858A5.317,5.317,0,0,1,314.7,102.8a5.552,5.552,0,0,1,4.26-.057,3.767,3.767,0,0,1,.949.532,1.338,1.338,0,1,0,1.542-2.185,7.884,7.884,0,0,0-1.267-.659,8.2,8.2,0,0,0-1.609-.453,9.332,9.332,0,0,0-1.609-.147,9.808,9.808,0,0,0-3.444.589,8.154,8.154,0,0,0-2.753,1.677,7.739,7.739,0,0,0-1.835,2.64,8.7,8.7,0,0,0-.668,3.478,8.991,8.991,0,0,0,.634,3.432,7.809,7.809,0,0,0,4.475,4.418,9.311,9.311,0,0,0,3.456.623,9.165,9.165,0,0,0,2.362-.3,2.736,2.736,0,0,1-1.17-2.244" transform="translate(-194.429 -62.968)" fill="#222b3e"/>
    <path id="Path_496" data-name="Path 496" d="M339.271,134.108a1.659,1.659,0,1,0,1.659,1.659,1.659,1.659,0,0,0-1.659-1.659" transform="translate(-212.94 -84.585)" fill="#5e888c"/>
    <path id="Path_497" data-name="Path 497" d="M357.509,113.569v-4.532h3.378a2.716,2.716,0,0,1,.017-2.4h-3.395v-4.079h6.526a1.246,1.246,0,0,0,0-2.492h-9.381v16.042h9.766a1.269,1.269,0,1,0,0-2.538Z" transform="translate(-223.689 -63.113)" fill="#222b3e"/>
    <path id="Path_498" data-name="Path 498" d="M373.726,118.325a1.659,1.659,0,1,0,1.659-1.659,1.659,1.659,0,0,0-1.659,1.659" transform="translate(-235.718 -73.584)" fill="#5e888c"/>
    <path id="Path_499" data-name="Path 499" d="M216.187,99.339v15.815a.226.226,0,0,0,.226.226h2.4a.226.226,0,0,0,.227-.226v-6.827h3.18a2.718,2.718,0,0,1,0-2.4h-3.182v-4.094H225.3a1.246,1.246,0,0,0,0-2.492Z" transform="translate(-136.354 -62.655)" fill="#222b3e"/>
    <path id="Path_500" data-name="Path 500" d="M236.362,115.939a1.659,1.659,0,1,0,1.659,1.659,1.659,1.659,0,0,0-1.659-1.659" transform="translate(-148.033 -73.125)" fill="#5e888c"/>
    <path id="Path_501" data-name="Path 501" d="M252.876,99.339v15.815a.226.226,0,0,0,.226.226h2.4a.226.226,0,0,0,.227-.226v-6.827h3.18a2.716,2.716,0,0,1,0-2.4H255.73v-4.094h6.254a1.246,1.246,0,0,0,0-2.492Z" transform="translate(-159.495 -62.655)" fill="#222b3e"/>
    <path id="Path_502" data-name="Path 502" d="M273.051,115.939a1.659,1.659,0,1,0,1.659,1.659,1.659,1.659,0,0,0-1.659-1.659" transform="translate(-171.173 -73.125)" fill="#5e888c"/>
    <path id="Path_503" data-name="Path 503" d="M290.845,110.246v10.777a1.427,1.427,0,1,0,2.855,0V110.228a2.722,2.722,0,0,1-2.855.018" transform="translate(-183.443 -69.523)" fill="#222b3e"/>
    <path id="Path_504" data-name="Path 504" d="M291.836,102.749a1.659,1.659,0,1,0-1.659-1.659,1.659,1.659,0,0,0,1.659,1.659" transform="translate(-183.022 -62.713)" fill="#5e888c"/>
    <path id="Path_505" data-name="Path 505" d="M183.283,116.788a1.657,1.657,0,1,0,1.657,1.657,1.657,1.657,0,0,0-1.657-1.657" transform="translate(-114.556 -73.661)" fill="#5e888c"/>
    <path id="Path_506" data-name="Path 506" d="M171.718,98.45a8.429,8.429,0,1,0,8.429,8.429,8.429,8.429,0,0,0-8.429-8.429m0,13.956a5.527,5.527,0,1,1,5.527-5.527,5.527,5.527,0,0,1-5.527,5.527" transform="translate(-102.99 -62.095)" fill="#222b3e"/>
    <path id="Path_507" data-name="Path 507" d="M57.653,17.65h-2.57l.469-6.674.644-2.053-.554-.174-.685,2.185h-.532V8.44h-.58v2.494H53.2l-.685-2.185-.554.174.657,2.1.311,6.632H47.937a1.472,1.472,0,0,0-1.472-1.472H45.372A1.472,1.472,0,0,0,43.9,17.65H34.993V16.131h8.042V14.069h0V2.687h-.018V2.681H23.435v.006h-.006V14.069h0v2.062h8.117V17.65H1.951a1.951,1.951,0,1,0,0,3.9H7.457v30.2a2.946,2.946,0,1,0,5.891,0v-30.2h9.537V46.625a5.632,5.632,0,0,1,5.909.038V29.846h.093L43.75,53.79a1.927,1.927,0,0,0,1.636.91h4.834a1.926,1.926,0,0,0,1.926-1.926V21.551h5.506a1.951,1.951,0,0,0,0-3.9M32.687,14.458a.546.546,0,1,1,.546.549.548.548,0,0,1-.546-.549M24.666,3.919H41.8v9.157H24.666ZM46.238,47.15h-.094l-15.725-25.6H46.238Z" transform="translate(0 -1.691)" fill="#222b3e"/>
    <path id="Path_508" data-name="Path 508" d="M64.6,125.575a3.435,3.435,0,1,0,2.8,2.8,3.437,3.437,0,0,0-2.8-2.8" transform="translate(-38.217 -79.173)" fill="#5e888c"/>
    <path id="Path_509" data-name="Path 509" d="M20.355,15.958A3.1,3.1,0,0,0,17.676,14.4h-.457V8.28A7.171,7.171,0,0,1,17.4,6.12a4.389,4.389,0,0,1,1.165-2.4,3.264,3.264,0,0,1,.776-.532,2.379,2.379,0,0,0,.564.918l2.826,2.826a1.057,1.057,0,0,0,1.494,0l1.9-1.9a1.056,1.056,0,0,0,0-1.494L23.3.7a2.4,2.4,0,0,0-4.061,1.27,4.533,4.533,0,0,0-1.469.895,5.468,5.468,0,0,0-1.5,2.979,8.253,8.253,0,0,0-.213,2.47V14.4h-.037a3.1,3.1,0,0,0-2.679,1.555Z" transform="translate(-8.415 0)" fill="#5e888c"/>
  </g>
</svg>
